<svg version="1" xmlns="http://www.w3.org/2000/svg">
  <symbol id="house" width="39" height="37" viewBox="0 0 39 37" fill="none">
      <path d="M15.4015 33.2194H23.7549V21.0613H15.4015V33.2194ZM22.2408 31.7441H16.9155V22.5365H22.1886V31.7441H22.2408Z" fill="#81B3D2"/>
      <path d="M37.9036 20.0431L39 18.9748L33.8313 13.9386V0.203483H26.6265V6.91843L19.4739 0L0 19.0257L1.09639 20.094L5.16867 16.126V35.3552H3.13253V36.8305H36.494V35.3552H33.8313V16.0752L37.9036 20.0431ZM28.1406 1.72961H32.2651V12.4633L28.1406 8.44455V1.72961ZM32.3173 35.3043H6.73494V14.5999L19.4739 2.13657L32.2651 14.5999V35.3043H32.3173Z" fill="#81B3D2"/>
      <path d="M15.5582 13.8369C15.5582 16.0243 17.3855 17.8048 19.5783 17.8048C21.8233 17.8048 23.6506 16.0243 23.6506 13.8369C23.6506 11.6494 21.8233 9.9198 19.5783 9.9198C17.3333 9.9198 15.5582 11.6494 15.5582 13.8369ZM19.5783 11.2933C20.9879 11.2933 22.1888 12.4125 22.1888 13.8369C22.1888 15.2104 21.0402 16.3804 19.5783 16.3804C18.1687 16.3804 16.9679 15.2612 16.9679 13.8369C16.9679 12.4633 18.1687 11.2933 19.5783 11.2933Z" fill="#81B3D2"/>
      <path d="M10.3895 21.0613H8.82324V23.0452H10.3895V21.0613Z" fill="#81B3D2"/>
      <path d="M13.4698 21.0613H11.9036V23.0452H13.4698V21.0613Z" fill="#81B3D2"/>
      <path d="M10.3895 24.1128H8.82324V26.0968H10.3895V24.1128Z" fill="#81B3D2"/>
      <path d="M13.4698 24.1128H11.9036V26.0968H13.4698V24.1128Z" fill="#81B3D2"/>
      <path d="M27.0443 21.0613H25.478V23.0452H27.0443V21.0613Z" fill="#81B3D2"/>
      <path d="M30.1769 21.0613H28.6106V23.0452H30.1769V21.0613Z" fill="#81B3D2"/>
      <path d="M27.0443 24.1128H25.478V26.0968H27.0443V24.1128Z" fill="#81B3D2"/>
      <path d="M30.1769 24.1128H28.6106V26.0968H30.1769V24.1128Z" fill="#81B3D2"/>
    </symbol>
  <symbol id="logo" width="185" height="96" viewBox="0 0 185 96" fill="none"><path d="M185 0H0l79.81 90.1c7.04 7.87 18.44 7.87 25.48 0L185 0Z" fill="#81B3D3"/><path d="M42.83.7 92 58.84 140.88 1.1 42.83.7Z" fill="#23A9E1"/><path d="M120.95 17.22c-5.05 0-10 .1-15.07.1 5.95-6.87 8.63-6.17 15.07-.1ZM80.1 22.6h26.48c-1.98-1.2-6.64-7.07-9.22-4.88-.2.2-7.44-8.86-12.2-4.48-4.16 3.78-6.04-.5-10.8 2.49-5.26 3.58 3.17 5.68 5.75 6.87Z" fill="#fff"/><path d="M92.3 0H41.84v22.4L92 83.63l.3-.4 50.27-60.13V0H92.3ZM54.43 1.8h5.45v17.12l-5.45-6.48V1.8Zm-.8 9.75-4.95-5.88V1.8h4.96v9.76Zm19.14-2.69L67.12 1.8h5.65v7.07Zm-6.54 3.78L60.68 1.8h5.55v10.85ZM60.58 3.4l5.45 10.65a39.17 39.17 0 0 0-5.45 4.88V3.39Zm6.44-.5 5.55 6.87a41.79 41.79 0 0 0-5.55 3.68V2.89Zm6.54-.2 4.76 4.18c-1.68.7-3.27 1.5-4.76 2.29V2.69Zm5.56 3.88L73.76 1.8h5.95v4.58c-.3 0-.4.1-.6.2ZM98.05 1.8h4.96l-4.96 2.4v-2.4Zm-5.75 0h4.36L92.3 3.9v-2.1Zm-.9 2-4.15-2h4.16v2Zm-5.44.5-5.06-2.5h5.06v2.5Zm-5.56-1.9 4.66 2.29c-1.58.4-3.17.8-4.66 1.3v-3.6Zm6.35 0 3.37 1.6c-1.19.1-2.28.2-3.47.4v-2h.1Zm10.31.1v1.9c-1.09-.2-2.18-.3-3.37-.4l3.37-1.5Zm6.44-.1v3.68c-1.48-.5-3.07-1-4.75-1.4l4.75-2.28Zm.7-.6h5.85l-5.36 4.78c-.2-.1-.3-.1-.5-.2V1.8Zm13.48 0h5.55l-5.55 10.85V1.8Zm-6.54 0h5.65l-5.65 6.97V1.8Zm-.8.9v6.47c-1.48-.8-3.07-1.6-4.75-2.29l4.76-4.18Zm6.55.2v10.45c-.7-.5-1.49-1-2.28-1.6-1-.69-2.18-1.39-3.37-2.08l5.65-6.77Zm6.34.5v15.13c-1.09-1-2.87-2.69-5.45-4.58l5.45-10.55Zm.8 15.92V1.8h5.45v11.35l-5.45 6.17c.1.1 0 .1 0 0Zm6.24-17.52h4.96v4.68l-4.96 5.78V1.79Zm-82.29 0v2.89l-2.47-2.89h2.48Zm12.7 18.12.1.1s3.56-3.88 9.12-7.57C75.15 8.96 83.08 4.88 92 4.98c8.83 0 16.96 4.18 22.11 7.66 5.56 3.69 9.22 7.47 9.32 7.57l-3.86 4.48c-6.84.9-11.8 6.07-18.44 4.98-3.38-.6-3.47-2.49-4.47-4.48-.69-1.5-1.88-1.3-3.47-1.9-1.38-.59-2.28-1.69-5.15-1.09-2.48.6-2.78 4.48-5.95 4.28-1.69-.1-1.78-2.49-4.16-5.47-6.25-7.57-12.1-6.47-16.07.5l30.05 35.74L60.68 19.9Zm75.24-14.43V1.79h3.18l-3.18 3.69Z" fill="#491213"/><path d="M87.94 70.59 92 64.12l3.97 6.47L92 77.06l-4.06-6.47Z" fill="#23A9E1"/><path d="M64.94 32.16c.5.6.9 1.3.8 2.09-.1.6-.9 1.6-.3 1.79.69-.9 1.48-1.9 2.18-2.79-.6-.2-5.36-5.77-5.36-6.47-1.09.6-2.08 1.2-3.17 1.7.2.7 1.29 0 1.88 0 .8.1 1.4.6 1.99 1.19-1.69 1.4-5.85 4.98-6.35 5.08-.2 0-1.09-.6-1.09-.1 0 .3.9 1 1 1.2.69.89 1.48 1.78 2.17 2.68.6-.3-.1-.7.2-1.2.3-.4 4.86-4.28 6.05-5.17ZM59.68 25.19c.4-.1.6.4 1-.1-.8-1-1.6-1.9-2.38-2.89-.4-.4-.8-.9-.7 0 .1.6-6.05 5.68-6.44 5.78-.5.2-.8-.4-1.1.1.7.9 1.5 1.69 2.19 2.58.2.3.5.6.7.9.29.3.19-.7.19-.6-.1-.5.5-.9.9-1.2 1.48-1.29 5.25-4.57 5.64-4.57ZM50.96 24.3c-1.79.49-3.67-.2-4.16-2-.5-1.8.59-3.78 2.08-4.78 1.39-1 3.57-1 4.36.8.3.8.2 1.7-.1 2.49-.2.5-.6 1 .1 1.3.9-1.1 1.68-2.2 2.58-3.3-1.1-.6-1.49-1.69-2.28-2.58-.9-1.1-2.09-2.1-3.47-2.3-2.88-.39-5.55 2.6-5.75 5.19a6.3 6.3 0 0 0 1.19 3.98c.79 1 1.88 1.6 2.38 2.79.3.1 2.67-1 3.27-1.3-.1-.1-.1-.2-.2-.3-.7.2 0 0 0 0ZM89.92 60.53c-1.19-.8-3.96-4.68-4.56-5.27-.1-.1-.2-.3-.3-.4 0 0-.3.2-.2.2-.2.1.1.6-.1.9-.79 1.19-5.74 4.97-5.94 5.17-.6.4-1.2-.2-1.49.3.7.9 2.78 3.48 2.98 3.58.5.1.1-.8.2-1 .1-.4 2.57-2.38 3.46-3.18.3-.3.7.4.9.7.3.5.5 1 .3 1.6-.1.39-.7.89-.3 1.19.6-.7 2.38-2.8 2.57-3 .3-.29-.6 0-.5-.1-.39.2-.69.2-1.08 0-.1-.1-1.1-1.09-1-1.19.4-.4 1-1 1.5-1.1.89-.19 1.58 1.5 1.68 2.1.1.6.1 1.2-.1 1.8-.1.39-.5.69 0 .89.7-1 1.39-1.9 2.08-2.89.2-.2 0-.3-.1-.3-.1-.1.2 0 0 0ZM79.81 56.35a5.32 5.32 0 0 0 .8-7.27c-1.9-2.49-5.36-3.08-7.74-1.1a5.31 5.31 0 0 0-.8 7.28c1.99 2.68 5.16 2.98 7.74 1.09 1.19-.9-.1.1 0 0Zm-.5-4.68a7.36 7.36 0 0 1-3.66 3.68c-1.79.7-3.08-.8-2.38-2.58a7.77 7.77 0 0 1 3.66-3.69c1.89-.7 3.08.9 2.38 2.6-.4.89.1-.2 0 0ZM73.46 41.81c.5.1.9.5 1.3 0-.7-.9-1.5-1.79-2.19-2.58-.6.3 0 .5-.2 1-.2.39-2.57.79-3.17.89.2-.6.9-2.6 1.2-2.79.49-.4.88.4 1.28-.1L69 34.95c-.3-.4-.6-1-.99-.7 0 0 0 1.5-.1 1.7-.1.19-.89 3.57-1.88 4.47-.5.4-2.18 1.9-2.68 2.1-.5.2-.8-.6-1.19 0 .8.99 1.69 1.98 2.48 2.98.1.1.6.9.8.9.49.1.1-.9.1-1.1.2-.4 2.47-2.69 3.46-2.89 1.2-.2 2.98-.7 4.46-.6.3.1-.4 0 0 0Z" fill="#fff"/><path d="M67.22 22.8c-3.97-.2-2.38-3.98.4-4.78 2.57-.8 8.03 1.7 9.71 3.39-2.77.9-6.34.7-9.32.9-.2-3.2-.99-2.1-.8.49ZM76.64 35.24c-8.53-.1-2.78-13.24.1-12.44 3.37 1.1 2.97 12.54-.1 12.44ZM82.68 30.96c-.79 2.5-2.37 2.99-2.18-.1.2-3.48 2.48-2.68 4.86-3.98 1.98-1.1 3.08-5.18 6.55-2.79 1.58 1.1 3.37.2 3.86 1.8 0-.1-4.46 10.25-1.98 10.25-4.96 0-2.78-5.87-.9-9.86-1.78.9-4.75 6.67-2.37 7.57-1.3 1.7-5.16 3.88-7.14 2.29-1.49-1.1-.7-3.19-.7-5.18ZM86.75 40.52c-3.47 1-8.03-1.2-2.48-2.29 3.47-.7 7.14.7 2.48 2.3.1 0-.1 0 0 0ZM91.11 40.42c-.7-1.7.6-3.58 2.68-2.19 1.78 1.2-.9 3.09-2.68 2.2ZM88.14 45c-2.38-.7-10.41-.6-5.16-2.79 1.69-.6 10.11.2 5.16 2.8ZM98.55 48.29c-1.39-1.2-2.88-1.3-4.17 0-1.78-3.29-8.23-2.2-11.3-2.7 1.59 4.09 14.67 4.89 15.47 2.7ZM96.66 50.78c-3.17-.1-6.64-.6-9.51.1 1.88.5 6.34 1.79 2.18 2.88 1.48 2.2 3.96 2 5.55.1-.7-.3-1-.7-1.59-1.1 1.59-.3 3.18-1.19 3.37-1.98ZM100.23 46.9c-5.25-3.1-3.96-5.38.4-7.57 2.28-1.1 7.24-5.18 9.32-3.89-3.27 3.89-6.54 7.67-9.72 11.45Z" fill="#DC6243"/><path d="M96.47 39.62c-4.47-4.58 6.64-4.18 8.42-5.77 1.3.4 10.71-8.26 12.99-7.67-1.69 1.9-5.16 8.07-7.73 8.07-1.98 0-3.97-.3-5.46 1.1-2.18 2.08-5.84 3.08-8.22 4.27Z" fill="#F49774"/><path d="M97.95 34.05c-2.48 1.3-4.76-3.88-.5-3.39 2.78.3 5.66-.2 8.24.2-1.99 2.3-4.66 3.59-7.74 3.19Z" fill="#F4B1A4"/><path d="M110.44 52.27c.2.6.3 1.3.2 1.99-.1.9-.99 2.89-2.18 2.29-1.19-.6-2.18-1.7-3.17-2.59.8-.9 1.49-1.7 2.88-1.3.4.1.69 0 .3-.3-.4-.2-3.08-1.98-3.28-1.78-.3.3.5.9.2 1.49-.2.4-.6.8-.9 1.2-.69-.6-1.88-1.3-1.08-2.3.5-.7 1.28-1.19 2.08-1.29.6-.1 1.78.4 1.98-.2-1.09-.5-2.18-1-3.27-1.6.2.8-3.27 4.49-4.07 5.48-.1.1-.69.6-.69.8 0 .4.6.1.7.1.49-.2 6.74 5.08 6.93 5.48.1.3-.2.6 0 .7 0 0 .2.2.3.2.4-.5 4.46-5.98 5.35-6.18-.79-1.2-1.58-2.4-2.37-3.68-.6.3 0 1 .1 1.49ZM104.3 58.94c-2.08-1.3-5.55 1.3-6.05 1.5-1 .49-1.78-.5-1.29-1.5a3 3 0 0 1 2.28-1.3c.3 0 1.3.2 1.49 0 .1-.2.2-.2 0-.3-.9-.6-1.69-1.19-2.58-1.69-.2 1.1-1.39 1.7-2.08 2.4-.8.89-1.49 1.88-1.49 3.18 0 1.1.7 2.09 1.69 2.69 1.09.6 2.28.1 3.27-.5.6-.4 1.29-.9 1.88-1.2 1-.5 2.28-.1 1.99 1.3a3.44 3.44 0 0 1-2.38 2.29c-.6.2-1.3.1-1.89-.1-.4-.1-.99-.7-1.19-.1 1.2.8 2.28 1.7 3.47 2.49.1-.8.5-1.1 1.1-1.6.69-.6 1.38-1.29 1.98-2.09 1.19-1.69 1.58-4.08-.2-5.47ZM104.3 58.94c.99.6-.6-.5 0 0ZM140.68 19.51c-.7.7-8.33-2.29-8.92-2.78-.3-.1-.3-1.3-.7-.8l-1.18 1.5c-.4.5-.8.99-1.3 1.49-.29.3-.49.5 0 .7.8-.4 5.36 7.26 4.96 8.46-.69.4-6.84-5.08-7.03-5.38-.1-.1.3-1-.2-.9-.2 0-.7.9-.9 1.1-.3.4-.59.7-.89 1.1.3.5.5 0 1 0 .4.1 1.78 1.29 2.18 1.69-.7 0-2.68.1-2.88.1-.9.1-.4-.7-1-.9-.78.9-1.48 1.8-2.27 2.79l-1.29 1.59c-.1.1 0 0 0 .1.3.3.1.2.6 0 .49-.2 6.54 4.88 6.74 5.18.4.4-.2 1 .4 1.2.59-.7 1.18-1.5 1.78-2.2.1-.1.1-.1 0-.2-.4-.4-.5.2-1 .2-.49-.1-4.36-3.38-5.84-4.58 1.78-.1 7.23-.3 8.13-.3.3 0 1.09.9 1.09 1.2-.1.4-.5.6.1.8.5-.6.99-1.1 1.48-1.7l.2-.3c.1-.1.1-.1.2-.3l.2-.2c.4-.5 1.78-1.99 1.58-2.09-.5-.4-.69.5-1.28-.1-.3-.2-1.2-1.79-1.4-2.19-.29-.4.6-.9 1-1.09.8-.5 3.17-1.2 3.47.3 0 .3-.3.5-.1.7 0 0 .2.2.3.2.2-.2 2.38-2.8 3.27-3.99-.3-.2-.4-.3-.5-.4Zm-7.33 2.2c.1 0 .2-.1 0 0-.3.2-.7.5-1 .79-.49-.9-.99-1.8-1.58-2.69 1.19.5 2.38 1 3.47 1.5-.2.1-.5.2-.9.4ZM123.73 32.85c-2.38-1.99-5.55-1.39-7.54.8a5.38 5.38 0 0 0 .6 7.57c2.28 1.89 5.65 1.4 7.53-.8 1.89-2.29 1.79-5.67-.59-7.57Zm-.3 6.58s0 .1 0 0c-1.29 1.29-3.37.1-4.46-.7-1.09-.8-3.07-2.59-1.88-4.08 1.09-1.3 3.07-.2 4.16.5 1.2.8 3.37 2.58 2.28 4.18l-.1.1Z" fill="#fff"/><path d="M123.73 32.85c1.19 1-.3-.2 0 0ZM123.43 39.53c0-.1 0-.1 0 0l.1-.1c-.1 0-.1.1-.1.1ZM117.19 41.91c.1.1.3.3 0 0-2.88-2.19-6.25-1.59-8.43 1.1l-2.98 3.58c.4.5.8-.1 1.3.2.4.3 6.14 5.08 6.24 5.38.2.5-.3.5.1.9.2.1 4.46-5.18 4.86-6.18.89-1.79.3-3.68-1.1-4.98Zm-1.3 6.77c-.2.3 0 .1-.69.7-.3.3-6.34-4.68-6.14-4.88.79-.9 2.58-1.59 3.57-1.3 2.18.5 5.15 3.2 3.27 5.48Z" fill="#fff"/></symbol>
  <symbol id="menu-burger" width="23" height="22" viewBox="0 0 23 22" fill="currentColor" xmlns="http://www.w3.org/2000/svg">
              <path d="M22.9 0H0V4H22.9V0Z"/>
              <path d="M22.9 9H0V13H22.9V9Z"/>
              <path d="M22.9 18H0V22H22.9V18Z"/></symbol>
  <symbol id="cross" width="23" height="23" viewBox="0 0 23 23">
              <path d="M22.2 2.8 19.4 0l-8.3 8.3L2.8 0 0 2.8l8.3 8.3L0 19.4l2.8 2.8 8.3-8.3 8.3 8.3 2.8-2.8-8.3-8.3 8.3-8.3Z"
                fill="currentColor"/></symbol>
  <symbol id="burger" width="40" height="35" viewBox="0 0 40 35">
<path d="M37.7428 23.3004H2.25722C0.997375 23.3004 0 24.3135 0 25.4785V27.2514C0 28.4164 0.997375 29.3788 2.25722 29.3788H2.78215V29.8853C2.78215 32.6712 5.14436 34.9 7.979 34.9H32.021C34.9081 34.9 37.2179 32.6206 37.2179 29.8853V29.3788H37.7428C38.9501 29.3788 40 28.4164 40 27.2007V25.4278C40 24.3135 39.0026 23.3004 37.7428 23.3004ZM35.6955 29.8853C35.6955 31.8101 34.0682 33.3804 32.0735 33.3804H7.92651C5.93176 33.3804 4.30446 31.8101 4.30446 29.8853V29.3788H35.6955V29.8853ZM38.4252 27.2007C38.4252 27.5553 38.1102 27.8592 37.7428 27.8592H2.25722C1.88976 27.8592 1.5748 27.5553 1.5748 27.2007V25.4278C1.5748 25.1239 1.88976 24.82 2.25722 24.82H37.7953C38.1627 24.82 38.4777 25.1239 38.4777 25.4785V27.2007H38.4252Z" fill="#81B3D2"/>
<path d="M8.50396 19.1973L11.3386 21.2234L14.2257 19.1973L17.1129 21.2234L20 19.1973L22.8347 21.2234L25.7218 19.1973L28.6089 21.2234L31.4961 19.1973L34.3832 21.2234L37.6903 18.8427L36.7979 17.627L34.3832 19.2986L31.4961 17.2725L28.6089 19.2986L25.7218 17.2725L22.8347 19.2986L20 17.2725L17.1129 19.2986L14.2257 17.2725L11.3386 19.2986L8.50396 17.2725L5.61681 19.2986L3.20212 17.627L2.25723 18.8427L5.61681 21.2234L8.50396 19.1973Z" fill="#81B3D2"/>
<path d="M37.2179 15.7531C37.2179 15.4492 37.2704 14.4361 37.2179 14.2335C36.8504 6.33164 29.2913 0 20 0C10.7087 0 3.09712 6.33164 2.72967 14.2335C2.72967 14.4361 2.72967 15.4492 2.72967 15.7531H37.2179ZM20 1.51959C28.399 1.51959 35.3281 7.19274 35.6431 14.2335H4.30447C4.67193 7.19274 11.6011 1.51959 20 1.51959Z" fill="#81B3D2"/>
<path d="M20 8.61109C20.5798 8.61109 21.0499 8.15752 21.0499 7.59802C21.0499 7.03852 20.5798 6.58496 20 6.58496C19.4202 6.58496 18.9501 7.03852 18.9501 7.59802C18.9501 8.15752 19.4202 8.61109 20 8.61109Z" fill="#81B3D2"/>
<path d="M15.8005 6.12866C16.3803 6.12866 16.8504 5.6751 16.8504 5.1156C16.8504 4.5561 16.3803 4.10254 15.8005 4.10254C15.2207 4.10254 14.7506 4.5561 14.7506 5.1156C14.7506 5.6751 15.2207 6.12866 15.8005 6.12866Z" fill="#81B3D2"/>
<path d="M24.1995 6.12866C24.7793 6.12866 25.2493 5.6751 25.2493 5.1156C25.2493 4.5561 24.7793 4.10254 24.1995 4.10254C23.6196 4.10254 23.1496 4.5561 23.1496 5.1156C23.1496 5.6751 23.6196 6.12866 24.1995 6.12866Z" fill="#81B3D2"/></symbol>

<symbol id="gift" width="32" height="38" viewBox="0 0 32 38">
<path d="M30.5778 11.2058H30.527H18.1841C25.0921 7.76156 25.6508 5.58358 25.3968 4.36796C24.8381 2.39259 22.5524 0.873068 20.419 1.68348C17.6254 2.74714 16.8635 6.9005 16.1016 9.88889C15.1365 6.84985 14.2222 3.0004 12.0381 1.02502C11.4286 0.467863 10.5143 -0.0892942 9.14286 0.0120071C7.11111 0.21461 4.21587 2.69649 5.43492 5.48228C6.55238 8.16676 10.2603 9.88888 12.7492 11.2565H1.42222C0.609524 11.2565 0 11.9149 0 12.6747V18.3475C0 19.158 0.660317 19.7658 1.42222 19.7658H1.5746V38H30.527V19.7658H30.5778C31.3905 19.7658 32 19.1073 32 18.3475V12.6747C32 11.8643 31.3397 11.2058 30.5778 11.2058ZM21.2317 2.94975C22.2984 2.79779 23.7206 3.6082 23.873 4.57057C24.0762 5.93813 22.1968 7.2044 21.3333 7.76156C20.0635 8.62262 18.8444 9.07847 17.6762 9.78758C18.0825 7.91351 18.946 3.25365 21.2317 2.94975ZM9.75238 7.91351C8.63492 7.15375 6.50159 5.68488 6.55238 4.01341C6.60317 2.18999 9.44762 0.721116 10.9714 2.08868C12.9016 3.76016 13.8159 7.66026 14.527 10.3954C12.9016 9.58498 11.3778 8.97717 9.75238 7.91351ZM12.7492 36.4805H3.04762V19.7658H12.7492V36.4805ZM12.7492 18.2462H1.52381V12.7253H12.7492V18.2462ZM17.8286 36.4805H14.2222V12.7253H17.8286V36.4805ZM29.0032 36.4805H19.3524V19.7658H29.054V36.4805H29.0032ZM30.4762 18.2462H19.3524V12.7253H30.4762V18.2462Z" fill="#81B3D2"/>
</symbol>

<symbol id="vk" width="24" height="24" viewBox="0 0 24 24">
                  <g clip-path="url(#clip0_36216_981)">
                    <path fill-rule="evenodd" clip-rule="evenodd"
                      d="M23.45 5.948C23.616 5.402 23.45 5 22.655 5H20.03C19.362 5 19.054 5.347 18.887 5.73C18.887 5.73 17.552 8.926 15.661 11.002C15.049 11.604 14.771 11.795 14.437 11.795C14.27 11.795 14.019 11.604 14.019 11.057V5.948C14.019 5.292 13.835 5 13.279 5H9.151C8.734 5 8.483 5.304 8.483 5.593C8.483 6.214 9.429 6.358 9.526 8.106V11.904C9.526 12.737 9.373 12.888 9.039 12.888C8.149 12.888 5.984 9.677 4.699 6.003C4.45 5.288 4.198 5 3.527 5H0.9C0.15 5 0 5.347 0 5.73C0 6.412 0.89 9.8 4.145 14.281C6.315 17.341 9.37 19 12.153 19C13.822 19 14.028 18.632 14.028 17.997V15.684C14.028 14.947 14.186 14.8 14.715 14.8C15.105 14.8 15.772 14.992 17.33 16.467C19.11 18.216 19.403 19 20.405 19H23.03C23.78 19 24.156 18.632 23.94 17.904C23.702 17.18 22.852 16.129 21.725 14.882C21.113 14.172 20.195 13.407 19.916 13.024C19.527 12.533 19.638 12.314 19.916 11.877C19.916 11.877 23.116 7.451 23.449 5.948H23.45Z"
                      fill="currentColor"/></symbol>
<symbol id="tg" width="22" height="18" viewBox="0 0 22 18">
                  <path d="M21.4393 1.62225L18.2705 16.566C18.0313 17.6205 17.408 17.883 16.5223 17.3865L11.6938 13.8285L9.36425 16.0695C9.10626 16.3275 8.891 16.5428 8.39375 16.5428L8.741 11.6258L17.6893 3.54C18.0785 3.1935 17.6045 3.00075 17.0848 3.348L6.02225 10.314L1.25976 8.823C0.224006 8.49975 0.205256 7.78725 1.47576 7.29L20.1035 0.113253C20.966 -0.209997 21.7205 0.305253 21.4393 1.623V1.62225Z"
                    fill="currentColor" /></symbol>
<symbol id="youtube" width="24" height="24" viewBox="0 0 24 24">
                  <path d="M19.1813 5H4.81331C3.30618 5 2 6.3 2 7.8V16.1C2 17.7 3.30618 19 4.81331 19H19.1813C20.7889 19 21.9946 17.7 21.9946 16.2V7.8C22.095 6.3 20.7889 5 19.1813 5ZM9.03326 15.4V8.6L15.8656 12L9.03326 15.4Z"
                    fill="currentColor" /></symbol>
<symbol id="htmlacademy" width="27" height="35" viewBox="0 0 27 35">
              <path d="M13.6 0H13.5L0 1.4V26.1L13.5 34.1L26.9 26.1V1.4L13.6 0ZM25 12.1L13.5 5.3V5.2H13.4L13.3 5.1V5.2L1.9 12.1V3.1L13.4 1.9L25 3.1V12.1ZM13.4 6.8L24.9 13.5L20.4 16.1L13.3 11.9V13.3L19.2 16.8L18.3 17.3L13.3 14.3V15.7L17.1 18L16.3 18.5L13.3 16.7V18.1L15.2 19.2L13.4 20.3L2 13.6L13.4 6.8ZM1.9 15.1L13.3 21.9V22.9L5.4 18.2V19.6L13.4 24.4V25.5L5.4 20.8V22.2L13.4 27L21.5 22.1V16.9L24.9 14.9V24.9L13.4 31.8L1.9 25V15.1Z"
                fill="currentColor" /></symbol>
</svg>
