<svg xmlns="http://www.w3.org/2000/svg" xmlns:xlink="http://www.w3.org/1999/xlink"><defs><clipPath id="a"><path fill="#fff" d="M0 0h24v24H0z"/></clipPath></defs><symbol id="cross"><g fill="none"><path d="M22.2 2.8 19.4 0l-8.3 8.3L2.8 0 0 2.8l8.3 8.3L0 19.4l2.8 2.8 8.3-8.3 8.3 8.3 2.8-2.8-8.3-8.3 8.3-8.3Z" fill="#fff"/></g></symbol><symbol id="htmlacademy-logo"><g fill="none"><path d="M13.6 0h-.1L0 1.4v24.7l13.5 8 13.4-8V1.4L13.6 0ZM25 12.1 13.5 5.3v-.1h-.1l-.1-.1v.1L1.9 12.1v-9l11.5-1.2L25 3.1v9ZM13.4 6.8l11.5 6.7-4.5 2.6-7.1-4.2v1.4l5.9 3.5-.9.5-5-3v1.4l3.8 2.3-.8.5-3-1.8v1.4l1.9 1.1-1.8 1.1L2 13.6l11.4-6.8ZM1.9 15.1l11.4 6.8v1l-7.9-4.7v1.4l8 4.8v1.1l-8-4.7v1.4l8 4.8 8.1-4.9v-5.2l3.4-2v10l-11.5 6.9L1.9 25v-9.9Z" fill="#000"/></g></symbol><symbol id="icon-burger"><g fill="none"><path d="M37.743 23.3H2.257C.997 23.3 0 24.314 0 25.478v1.773c0 1.165.997 2.128 2.257 2.128h.525v.506c0 2.786 2.362 5.015 5.197 5.015h24.042c2.887 0 5.197-2.28 5.197-5.015v-.506h.525c1.207 0 2.257-.963 2.257-2.178v-1.773c0-1.114-.997-2.128-2.257-2.128Zm-2.047 6.585c0 1.925-1.628 3.495-3.622 3.495H7.927c-1.995 0-3.623-1.57-3.623-3.495v-.506h31.392v.506Zm2.73-2.684c0 .354-.316.658-.683.658H2.257c-.367 0-.682-.304-.682-.658v-1.773c0-.304.315-.608.682-.608h35.538c.368 0 .683.304.683.659V27.2h-.053ZM8.504 19.197l2.835 2.026 2.887-2.026 2.887 2.026L20 19.197l2.835 2.026 2.887-2.026 2.887 2.026 2.887-2.026 2.887 2.026 3.307-2.38-.892-1.216-2.415 1.672-2.887-2.026-2.887 2.026-2.887-2.026-2.887 2.026L20 17.273l-2.887 2.026-2.887-2.026-2.887 2.026-2.835-2.026-2.887 2.026-2.415-1.672-.945 1.216 3.36 2.38 2.887-2.026ZM37.218 15.753c0-.304.052-1.317 0-1.52C36.85 6.332 29.29 0 20 0S3.097 6.332 2.73 14.233v1.52h34.488ZM20 1.52c8.399 0 15.328 5.673 15.643 12.713H4.304C4.672 7.193 11.601 1.52 20 1.52Z" fill="#81B3D2"/><path d="M20 8.611c.58 0 1.05-.453 1.05-1.013 0-.56-.47-1.013-1.05-1.013-.58 0-1.05.454-1.05 1.013 0 .56.47 1.013 1.05 1.013ZM15.8 6.129c.58 0 1.05-.454 1.05-1.013 0-.56-.47-1.013-1.05-1.013-.58 0-1.05.453-1.05 1.013 0 .56.47 1.013 1.05 1.013ZM24.2 6.129c.58 0 1.05-.454 1.05-1.013 0-.56-.47-1.013-1.05-1.013-.58 0-1.05.453-1.05 1.013 0 .56.47 1.013 1.05 1.013Z" fill="#81B3D2"/></g></symbol><symbol id="icon-gift"><g fill="none"><path d="M30.578 11.206H18.184c6.908-3.444 7.467-5.622 7.213-6.838-.559-1.975-2.845-3.495-4.978-2.685-2.794 1.064-3.556 5.218-4.317 8.206-.966-3.04-1.88-6.889-4.064-8.864-.61-.557-1.524-1.114-2.895-1.013-2.032.203-4.927 2.684-3.708 5.47 1.117 2.685 4.825 4.407 7.314 5.775H1.422C.61 11.257 0 11.915 0 12.675v5.672c0 .811.66 1.419 1.422 1.419h.153V38h28.952V19.766h.05c.813 0 1.423-.659 1.423-1.418v-5.673c0-.81-.66-1.47-1.422-1.47ZM21.232 2.95c1.066-.152 2.489.658 2.641 1.62.203 1.368-1.676 2.634-2.54 3.192-1.27.86-2.489 1.316-3.657 2.026.407-1.874 1.27-6.534 3.556-6.838ZM9.752 7.914c-1.117-.76-3.25-2.23-3.2-3.9.051-1.824 2.896-3.293 4.42-1.925 1.93 1.671 2.844 5.571 3.555 8.306-1.625-.81-3.15-1.418-4.775-2.481ZM12.75 36.48H3.048V19.765h9.701V36.48Zm0-18.235H1.524v-5.52h11.225v5.52Zm5.08 18.235h-3.607V12.724h3.607V36.48Zm11.174 0h-9.65V19.765h9.701V36.48h-.05Zm1.473-18.235H19.352v-5.52h11.124v5.52Z" fill="#81B3D2"/></g></symbol><symbol id="icon-house"><g fill="none"><path d="M15.402 33.22h8.353V21.06h-8.353V33.22Zm6.839-1.476h-5.325v-9.207h5.273v9.207h.052Z" fill="#81B3D2"/><path d="M37.904 20.043 39 18.975l-5.169-5.036V.203h-7.205v6.715L19.474 0 0 19.026l1.096 1.068 4.073-3.968v19.23H3.133v1.474h33.361v-1.475h-2.663v-19.28l4.073 3.968ZM28.14 1.73h4.124v10.733l-4.124-4.018V1.73Zm4.176 33.574H6.735V14.6L19.474 2.137 32.265 14.6v20.704h.052Z" fill="#81B3D2"/><path d="M15.558 13.837c0 2.187 1.828 3.968 4.02 3.968 2.245 0 4.073-1.78 4.073-3.968 0-2.188-1.828-3.917-4.073-3.917s-4.02 1.73-4.02 3.917Zm4.02-2.544c1.41 0 2.61 1.12 2.61 2.544 0 1.373-1.148 2.543-2.61 2.543-1.41 0-2.61-1.119-2.61-2.543 0-1.374 1.2-2.544 2.61-2.544ZM10.39 21.061H8.822v1.984h1.566v-1.984ZM13.47 21.061h-1.566v1.984h1.566v-1.984ZM10.39 24.113H8.822v1.984h1.566v-1.984ZM13.47 24.113h-1.566v1.984h1.566v-1.984ZM27.044 21.061h-1.566v1.984h1.566v-1.984ZM30.177 21.061H28.61v1.984h1.566v-1.984ZM27.044 24.113h-1.566v1.984h1.566v-1.984ZM30.177 24.113H28.61v1.984h1.566v-1.984Z" fill="#81B3D2"/></g></symbol><symbol id="logo"><g fill="none"><path d="M185 0H0l79.81 90.1c7.04 7.87 18.44 7.87 25.48 0L185 0Z" fill="#81B3D3"/><path d="M42.83.7 92 58.84 140.88 1.1 42.83.7Z" fill="#23A9E1"/><path d="M120.95 17.22c-5.05 0-10 .1-15.07.1 5.95-6.87 8.63-6.17 15.07-.1ZM80.1 22.6h26.48c-1.98-1.2-6.64-7.07-9.22-4.88-.2.2-7.44-8.86-12.2-4.48-4.16 3.78-6.04-.5-10.8 2.49-5.26 3.58 3.17 5.68 5.75 6.87Z" fill="#fff"/><path d="M92.3 0H41.84v22.4L92 83.63l.3-.4 50.27-60.13V0H92.3ZM54.43 1.8h5.45v17.12l-5.45-6.48V1.8Zm-.8 9.75-4.95-5.88V1.8h4.96v9.76Zm19.14-2.69L67.12 1.8h5.65v7.07Zm-6.54 3.78L60.68 1.8h5.55v10.85ZM60.58 3.4l5.45 10.65a39.17 39.17 0 0 0-5.45 4.88V3.39Zm6.44-.5 5.55 6.87a41.79 41.79 0 0 0-5.55 3.68V2.89Zm6.54-.2 4.76 4.18c-1.68.7-3.27 1.5-4.76 2.29V2.69Zm5.56 3.88L73.76 1.8h5.95v4.58c-.3 0-.4.1-.6.2ZM98.05 1.8h4.96l-4.96 2.4V1.8Zm-5.75 0h4.36L92.3 3.9V1.8Zm-.9 2-4.15-2h4.16v2Zm-5.44.5L80.9 1.8h5.06v2.5ZM80.4 2.4l4.66 2.29c-1.58.4-3.17.8-4.66 1.3v-3.6Zm6.35 0L90.12 4c-1.19.1-2.28.2-3.47.4v-2h.1Zm10.31.1v1.9c-1.09-.2-2.18-.3-3.37-.4l3.37-1.5Zm6.44-.1v3.68c-1.48-.5-3.07-1-4.75-1.4l4.75-2.28Zm.7-.6h5.85l-5.36 4.78c-.2-.1-.3-.1-.5-.2V1.8Zm13.48 0h5.55l-5.55 10.85V1.8Zm-6.54 0h5.65l-5.65 6.97V1.8Zm-.8.9v6.47c-1.48-.8-3.07-1.6-4.75-2.29l4.76-4.18Zm6.55.2v10.45c-.7-.5-1.49-1-2.28-1.6-1-.69-2.18-1.39-3.37-2.08l5.65-6.77Zm6.34.5v15.13c-1.09-1-2.87-2.69-5.45-4.58l5.45-10.55Zm.8 15.92V1.8h5.45v11.35l-5.45 6.17c.1.1 0 .1 0 0Zm6.24-17.52h4.96v4.68l-4.96 5.78V1.79Zm-82.29 0v2.89L45.51 1.8h2.48Zm12.7 18.12.1.1s3.56-3.88 9.12-7.57C75.15 8.96 83.08 4.88 92 4.98c8.83 0 16.96 4.18 22.11 7.66 5.56 3.69 9.22 7.47 9.32 7.57l-3.86 4.48c-6.84.9-11.8 6.07-18.44 4.98-3.38-.6-3.47-2.49-4.47-4.48-.69-1.5-1.88-1.3-3.47-1.9-1.38-.59-2.28-1.69-5.15-1.09-2.48.6-2.78 4.48-5.95 4.28-1.69-.1-1.78-2.49-4.16-5.47-6.25-7.57-12.1-6.47-16.07.5l30.05 35.74L60.68 19.9Zm75.24-14.43v-3.7h3.18l-3.18 3.69Z" fill="#491213"/><path d="M87.94 70.59 92 64.12l3.97 6.47L92 77.06l-4.06-6.47Z" fill="#23A9E1"/><path d="M64.94 32.16c.5.6.9 1.3.8 2.09-.1.6-.9 1.6-.3 1.79.69-.9 1.48-1.9 2.18-2.79-.6-.2-5.36-5.77-5.36-6.47-1.09.6-2.08 1.2-3.17 1.7.2.7 1.29 0 1.88 0 .8.1 1.4.6 1.99 1.19-1.69 1.4-5.85 4.98-6.35 5.08-.2 0-1.09-.6-1.09-.1 0 .3.9 1 1 1.2.69.89 1.48 1.78 2.17 2.68.6-.3-.1-.7.2-1.2.3-.4 4.86-4.28 6.05-5.17Zm-5.26-6.97c.4-.1.6.4 1-.1-.8-1-1.6-1.9-2.38-2.89-.4-.4-.8-.9-.7 0 .1.6-6.05 5.68-6.44 5.78-.5.2-.8-.4-1.1.1.7.9 1.5 1.69 2.19 2.58.2.3.5.6.7.9.29.3.19-.7.19-.6-.1-.5.5-.9.9-1.2 1.48-1.29 5.25-4.57 5.64-4.57Zm-8.72-.89c-1.79.49-3.67-.2-4.16-2-.5-1.8.59-3.78 2.08-4.78 1.39-1 3.57-1 4.36.8.3.8.2 1.7-.1 2.49-.2.5-.6 1 .1 1.3.9-1.1 1.68-2.2 2.58-3.3-1.1-.6-1.49-1.69-2.28-2.58-.9-1.1-2.09-2.1-3.47-2.3-2.88-.39-5.55 2.6-5.75 5.19a6.3 6.3 0 0 0 1.19 3.98c.79 1 1.88 1.6 2.38 2.79.3.1 2.67-1 3.27-1.3-.1-.1-.1-.2-.2-.3-.7.2 0 0 0 0Zm38.96 36.23c-1.19-.8-3.96-4.68-4.56-5.27-.1-.1-.2-.3-.3-.4 0 0-.3.2-.2.2-.2.1.1.6-.1.9-.79 1.19-5.74 4.97-5.94 5.17-.6.4-1.2-.2-1.49.3.7.9 2.78 3.48 2.98 3.58.5.1.1-.8.2-1 .1-.4 2.57-2.38 3.46-3.18.3-.3.7.4.9.7.3.5.5 1 .3 1.6-.1.39-.7.89-.3 1.19.6-.7 2.38-2.8 2.57-3 .3-.29-.6 0-.5-.1-.39.2-.69.2-1.08 0-.1-.1-1.1-1.09-1-1.19.4-.4 1-1 1.5-1.1.89-.19 1.58 1.5 1.68 2.1.1.6.1 1.2-.1 1.8-.1.39-.5.69 0 .89.7-1 1.39-1.9 2.08-2.89.2-.2 0-.3-.1-.3-.1-.1.2 0 0 0Zm-10.11-4.18a5.32 5.32 0 0 0 .8-7.27c-1.9-2.49-5.36-3.08-7.74-1.1a5.31 5.31 0 0 0-.8 7.28c1.99 2.68 5.16 2.98 7.74 1.09 1.19-.9-.1.1 0 0Zm-.5-4.68a7.36 7.36 0 0 1-3.66 3.68c-1.79.7-3.08-.8-2.38-2.58a7.77 7.77 0 0 1 3.66-3.69c1.89-.7 3.08.9 2.38 2.6-.4.89.1-.2 0 0Zm-5.85-9.86c.5.1.9.5 1.3 0-.7-.9-1.5-1.79-2.19-2.58-.6.3 0 .5-.2 1-.2.39-2.57.79-3.17.89.2-.6.9-2.6 1.2-2.79.49-.4.88.4 1.28-.1L69 34.95c-.3-.4-.6-1-.99-.7 0 0 0 1.5-.1 1.7-.1.19-.89 3.57-1.88 4.47-.5.4-2.18 1.9-2.68 2.1-.5.2-.8-.6-1.19 0 .8.99 1.69 1.98 2.48 2.98.1.1.6.9.8.9.49.1.1-.9.1-1.1.2-.4 2.47-2.69 3.46-2.89 1.2-.2 2.98-.7 4.46-.6.3.1-.4 0 0 0Z" fill="#fff"/><path d="M67.22 22.8c-3.97-.2-2.38-3.98.4-4.78 2.57-.8 8.03 1.7 9.71 3.39-2.77.9-6.34.7-9.32.9-.2-3.2-.99-2.1-.8.49Zm9.42 12.44c-8.53-.1-2.78-13.24.1-12.44 3.37 1.1 2.97 12.54-.1 12.44Zm6.04-4.28c-.79 2.5-2.37 2.99-2.18-.1.2-3.48 2.48-2.68 4.86-3.98 1.98-1.1 3.08-5.18 6.55-2.79 1.58 1.1 3.37.2 3.86 1.8 0-.1-4.46 10.25-1.98 10.25-4.96 0-2.78-5.87-.9-9.86-1.78.9-4.75 6.67-2.37 7.57-1.3 1.7-5.16 3.88-7.14 2.29-1.49-1.1-.7-3.19-.7-5.18Zm4.07 9.56c-3.47 1-8.03-1.2-2.48-2.29 3.47-.7 7.14.7 2.48 2.3.1 0-.1 0 0 0Zm4.36-.1c-.7-1.7.6-3.58 2.68-2.19 1.78 1.2-.9 3.09-2.68 2.2ZM88.14 45c-2.38-.7-10.41-.6-5.16-2.79 1.69-.6 10.11.2 5.16 2.8Zm10.41 3.29c-1.39-1.2-2.88-1.3-4.17 0-1.78-3.29-8.23-2.2-11.3-2.7 1.59 4.09 14.67 4.89 15.47 2.7Zm-1.89 2.49c-3.17-.1-6.64-.6-9.51.1 1.88.5 6.34 1.79 2.18 2.88 1.48 2.2 3.96 2 5.55.1-.7-.3-1-.7-1.59-1.1 1.59-.3 3.18-1.19 3.37-1.98Zm3.57-3.88c-5.25-3.1-3.96-5.38.4-7.57 2.28-1.1 7.24-5.18 9.32-3.89-3.27 3.89-6.54 7.67-9.72 11.45Z" fill="#DC6243"/><path d="M96.47 39.62c-4.47-4.58 6.64-4.18 8.42-5.77 1.3.4 10.71-8.26 12.99-7.67-1.69 1.9-5.16 8.07-7.73 8.07-1.98 0-3.97-.3-5.46 1.1-2.18 2.08-5.84 3.08-8.22 4.27Z" fill="#F49774"/><path d="M97.95 34.05c-2.48 1.3-4.76-3.88-.5-3.39 2.78.3 5.66-.2 8.24.2-1.99 2.3-4.66 3.59-7.74 3.19Z" fill="#F4B1A4"/><path d="M110.44 52.27c.2.6.3 1.3.2 1.99-.1.9-.99 2.89-2.18 2.29-1.19-.6-2.18-1.7-3.17-2.59.8-.9 1.49-1.7 2.88-1.3.4.1.69 0 .3-.3-.4-.2-3.08-1.98-3.28-1.78-.3.3.5.9.2 1.49-.2.4-.6.8-.9 1.2-.69-.6-1.88-1.3-1.08-2.3.5-.7 1.28-1.19 2.08-1.29.6-.1 1.78.4 1.98-.2-1.09-.5-2.18-1-3.27-1.6.2.8-3.27 4.49-4.07 5.48-.1.1-.69.6-.69.8 0 .4.6.1.7.1.49-.2 6.74 5.08 6.93 5.48.1.3-.2.6 0 .7 0 0 .2.2.3.2.4-.5 4.46-5.98 5.35-6.18-.79-1.2-1.58-2.4-2.37-3.68-.6.3 0 1 .1 1.49Zm-6.14 6.67c-2.08-1.3-5.55 1.3-6.05 1.5-1 .49-1.78-.5-1.29-1.5a3 3 0 0 1 2.28-1.3c.3 0 1.3.2 1.49 0 .1-.2.2-.2 0-.3-.9-.6-1.69-1.19-2.58-1.69-.2 1.1-1.39 1.7-2.08 2.4-.8.89-1.49 1.88-1.49 3.18 0 1.1.7 2.09 1.69 2.69 1.09.6 2.28.1 3.27-.5.6-.4 1.29-.9 1.88-1.2 1-.5 2.28-.1 1.99 1.3a3.44 3.44 0 0 1-2.38 2.29c-.6.2-1.3.1-1.89-.1-.4-.1-.99-.7-1.19-.1 1.2.8 2.28 1.7 3.47 2.49.1-.8.5-1.1 1.1-1.6.69-.6 1.38-1.29 1.98-2.09 1.19-1.69 1.58-4.08-.2-5.47Zm0 0c.99.6-.6-.5 0 0Zm36.38-39.43c-.7.7-8.33-2.29-8.92-2.78-.3-.1-.3-1.3-.7-.8l-1.18 1.5c-.4.5-.8.99-1.3 1.49-.29.3-.49.5 0 .7.8-.4 5.36 7.26 4.96 8.46-.69.4-6.84-5.08-7.03-5.38-.1-.1.3-1-.2-.9-.2 0-.7.9-.9 1.1-.3.4-.59.7-.89 1.1.3.5.5 0 1 0 .4.1 1.78 1.29 2.18 1.69-.7 0-2.68.1-2.88.1-.9.1-.4-.7-1-.9-.78.9-1.48 1.8-2.27 2.79l-1.29 1.59c-.1.1 0 0 0 .1.3.3.1.2.6 0 .49-.2 6.54 4.88 6.74 5.18.4.4-.2 1 .4 1.2.59-.7 1.18-1.5 1.78-2.2.1-.1.1-.1 0-.2-.4-.4-.5.2-1 .2-.49-.1-4.36-3.38-5.84-4.58 1.78-.1 7.23-.3 8.13-.3.3 0 1.09.9 1.09 1.2-.1.4-.5.6.1.8.5-.6.99-1.1 1.48-1.7l.2-.3c.1-.1.1-.1.2-.3l.2-.2c.4-.5 1.78-1.99 1.58-2.09-.5-.4-.69.5-1.28-.1-.3-.2-1.2-1.79-1.4-2.19-.29-.4.6-.9 1-1.09.8-.5 3.17-1.2 3.47.3 0 .3-.3.5-.1.7 0 0 .2.2.3.2.2-.2 2.38-2.8 3.27-3.99-.3-.2-.4-.3-.5-.4Zm-7.33 2.2c.1 0 .2-.1 0 0-.3.2-.7.5-1 .79-.49-.9-.99-1.8-1.58-2.69 1.19.5 2.38 1 3.47 1.5-.2.1-.5.2-.9.4Zm-9.62 11.14c-2.38-1.99-5.55-1.39-7.54.8a5.38 5.38 0 0 0 .6 7.57c2.28 1.89 5.65 1.4 7.53-.8 1.89-2.29 1.79-5.67-.59-7.57Zm-.3 6.58s0 .1 0 0c-1.29 1.29-3.37.1-4.46-.7-1.09-.8-3.07-2.59-1.88-4.08 1.09-1.3 3.07-.2 4.16.5 1.2.8 3.37 2.58 2.28 4.18l-.1.1Z" fill="#fff"/><path d="M123.73 32.85c1.19 1-.3-.2 0 0Zm-.3 6.68c0-.1 0-.1 0 0l.1-.1c-.1 0-.1.1-.1.1Zm-6.24 2.38c.1.1.3.3 0 0-2.88-2.19-6.25-1.59-8.43 1.1l-2.98 3.58c.4.5.8-.1 1.3.2.4.3 6.14 5.08 6.24 5.38.2.5-.3.5.1.9.2.1 4.46-5.18 4.86-6.18.89-1.79.3-3.68-1.1-4.98Zm-1.3 6.77c-.2.3 0 .1-.69.7-.3.3-6.34-4.68-6.14-4.88.79-.9 2.58-1.59 3.57-1.3 2.18.5 5.15 3.2 3.27 5.48Z" fill="#fff"/></g></symbol><symbol id="menu-burger"><g fill="none"><path d="M22.9 0H0v4h22.9V0ZM22.9 9H0v4h22.9V9ZM22.9 18H0v4h22.9v-4Z" fill="#81B3D2"/></g></symbol><symbol id="tg"><g fill="none"><path d="m21.44 1.622-3.17 14.944c-.239 1.055-.862 1.317-1.748.82l-4.828-3.557-2.33 2.24c-.258.259-.473.474-.97.474l.347-4.917 8.948-8.086c.39-.347-.084-.54-.604-.192L6.022 10.314 1.26 8.823C.224 8.5.205 7.787 1.476 7.29L20.103.113c.863-.323 1.617.192 1.336 1.51Z" fill="#fff"/></g></symbol><symbol id="vk"><g fill="none"><g clip-path="url(#a)"><path fill-rule="evenodd" clip-rule="evenodd" d="M23.45 5.948c.166-.546 0-.948-.795-.948H20.03c-.668 0-.976.347-1.143.73 0 0-1.335 3.196-3.226 5.272-.612.602-.89.793-1.224.793-.167 0-.418-.191-.418-.738V5.948c0-.656-.184-.948-.74-.948H9.151c-.417 0-.668.304-.668.593 0 .621.946.765 1.043 2.513v3.798c0 .833-.153.984-.487.984-.89 0-3.055-3.211-4.34-6.885C4.45 5.288 4.198 5 3.527 5H.9c-.75 0-.9.347-.9.73 0 .682.89 4.07 4.145 8.551C6.315 17.341 9.37 19 12.153 19c1.669 0 1.875-.368 1.875-1.003v-2.313c0-.737.158-.884.687-.884.39 0 1.057.192 2.615 1.667C19.11 18.216 19.403 19 20.405 19h2.625c.75 0 1.126-.368.91-1.096-.238-.724-1.088-1.775-2.215-3.022-.612-.71-1.53-1.475-1.809-1.858-.389-.491-.278-.71 0-1.147 0 0 3.2-4.426 3.533-5.929h.001Z" fill="#fff"/></g></g></symbol><symbol id="youtube"><g fill="none"><path d="M19.181 5H4.813C3.306 5 2 6.3 2 7.8v8.3C2 17.7 3.306 19 4.813 19h14.368c1.608 0 2.814-1.3 2.814-2.8V7.8c.1-1.5-1.206-2.8-2.814-2.8ZM9.033 15.4V8.6l6.833 3.4-6.833 3.4Z" fill="#fff"/></g></symbol></svg>